<?xml version="1.0" encoding="UTF-8"?>
<!DOCTYPE score-partwise PUBLIC "-//Recordare//DTD MusicXML 2.0 Partwise//EN" "http://www.musicxml.org/dtds/partwise.dtd">
<!-- INFO key="SOCIAL_FUNCTION" value="	songs used in the treatment of the sick" -->
<!-- INFO key="PDT" value="	1922" -->
<!-- INFO key="OTL" value="No_66_Song_Used_in_Treatment_of_Sick_(o).krn" -->
<!-- INFO key="REG" value="Southwest" -->
<!-- INFO key="LANG" value="Non-Tone" -->
<!-- INFO key="LING_GROUP" value="Uto-Aztecan" -->
<score-partwise version="2.0">
	<part-list>
		<score-part id="P1">
			<part-name></part-name>
		</score-part>
	</part-list>

	<part id="P1">
		<measure number="1">
			<attributes>
				<divisions>12</divisions>
			</attributes>
			<attributes>
				<clef>
					<sign>G</sign>
					<line>2</line>
				</clef>
			</attributes>
			<attributes>
				<key>
					<fifths>-2</fifths>
				</key>
			</attributes>
			<attributes>
				<time>
					<beats>2</beats>
					<beat-type>4</beat-type>
				</time>
			</attributes>
			<note>
				<pitch>
					<step>B</step>
					<alter>-1</alter>
					<octave>4</octave>
				</pitch>
				<duration>6</duration>
				<voice>1</voice>
				<type>eighth</type>
				<stem>up</stem>
				<beam number="1">begin</beam>
			</note>
			<note>
				<pitch>
					<step>F</step>
					<octave>4</octave>
				</pitch>
				<duration>6</duration>
				<voice>1</voice>
				<type>eighth</type>
				<stem>up</stem>
				<beam number="1">end</beam>
			</note>
			<note>
				<pitch>
					<step>F</step>
					<octave>4</octave>
				</pitch>
				<duration>6</duration>
				<voice>1</voice>
				<type>eighth</type>
				<stem>up</stem>
				<beam number="1">begin</beam>
			</note>
			<note>
				<pitch>
					<step>F</step>
					<octave>4</octave>
				</pitch>
				<duration>6</duration>
				<voice>1</voice>
				<type>eighth</type>
				<stem>up</stem>
				<beam number="1">end</beam>
			</note>
			<barline>
				<bar-style>light-light</bar-style>
			</barline>
		</measure>
		<measure number="2">
			<attributes>
				<time>
					<beats>3</beats>
					<beat-type>4</beat-type>
				</time>
			</attributes>
			<note>
				<pitch>
					<step>F</step>
					<octave>4</octave>
				</pitch>
				<duration>6</duration>
				<voice>1</voice>
				<type>eighth</type>
				<stem>up</stem>
				<beam number="1">begin</beam>
			</note>
			<note>
				<pitch>
					<step>F</step>
					<octave>4</octave>
				</pitch>
				<duration>6</duration>
				<voice>1</voice>
				<type>eighth</type>
				<stem>up</stem>
				<beam number="1">end</beam>
			</note>
			<note>
				<pitch>
					<step>F</step>
					<octave>4</octave>
				</pitch>
				<duration>6</duration>
				<voice>1</voice>
				<type>eighth</type>
				<stem>up</stem>
				<beam number="1">begin</beam>
			</note>
			<note>
				<pitch>
					<step>F</step>
					<octave>4</octave>
				</pitch>
				<duration>6</duration>
				<voice>1</voice>
				<type>eighth</type>
				<stem>up</stem>
				<beam number="1">end</beam>
			</note>
			<note>
				<pitch>
					<step>F</step>
					<octave>4</octave>
				</pitch>
				<duration>6</duration>
				<voice>1</voice>
				<type>eighth</type>
				<stem>up</stem>
				<beam number="1">begin</beam>
			</note>
			<note>
				<pitch>
					<step>F</step>
					<octave>4</octave>
				</pitch>
				<duration>6</duration>
				<voice>1</voice>
				<type>eighth</type>
				<stem>up</stem>
				<beam number="1">end</beam>
				<notations>
					<fermata type="upright"/>
				</notations>
			</note>
			<barline>
				<bar-style>light-light</bar-style>
			</barline>
		</measure>
		<measure number="3">
			<attributes>
				<time>
					<beats>2</beats>
					<beat-type>4</beat-type>
				</time>
			</attributes>
			<note>
				<pitch>
					<step>B</step>
					<alter>-1</alter>
					<octave>4</octave>
				</pitch>
				<duration>6</duration>
				<voice>1</voice>
				<type>eighth</type>
				<stem>up</stem>
				<beam number="1">begin</beam>
			</note>
			<note>
				<pitch>
					<step>F</step>
					<octave>4</octave>
				</pitch>
				<duration>6</duration>
				<voice>1</voice>
				<type>eighth</type>
				<stem>up</stem>
				<beam number="1">end</beam>
			</note>
			<note>
				<pitch>
					<step>D</step>
					<octave>4</octave>
				</pitch>
				<duration>6</duration>
				<voice>1</voice>
				<type>eighth</type>
				<stem>up</stem>
				<beam number="1">begin</beam>
			</note>
			<note>
				<pitch>
					<step>D</step>
					<octave>4</octave>
				</pitch>
				<duration>6</duration>
				<voice>1</voice>
				<type>eighth</type>
				<stem>up</stem>
				<beam number="1">end</beam>
			</note>
		</measure>
		<measure number="4">
			<note>
				<pitch>
					<step>D</step>
					<octave>4</octave>
				</pitch>
				<duration>6</duration>
				<voice>1</voice>
				<type>eighth</type>
				<stem>up</stem>
				<beam number="1">begin</beam>
			</note>
			<note>
				<pitch>
					<step>D</step>
					<octave>4</octave>
				</pitch>
				<duration>6</duration>
				<voice>1</voice>
				<type>eighth</type>
				<stem>up</stem>
				<beam number="1">end</beam>
			</note>
			<note>
				<pitch>
					<step>D</step>
					<octave>4</octave>
				</pitch>
				<duration>6</duration>
				<voice>1</voice>
				<type>eighth</type>
				<stem>up</stem>
				<beam number="1">begin</beam>
			</note>
			<note>
				<pitch>
					<step>D</step>
					<octave>4</octave>
				</pitch>
				<duration>6</duration>
				<voice>1</voice>
				<type>eighth</type>
				<stem>up</stem>
				<beam number="1">end</beam>
			</note>
			<barline>
				<bar-style>light-light</bar-style>
			</barline>
		</measure>
		<measure number="5">
			<attributes>
				<time>
					<beats>3</beats>
					<beat-type>4</beat-type>
				</time>
			</attributes>
			<note>
				<pitch>
					<step>B</step>
					<alter>-1</alter>
					<octave>4</octave>
				</pitch>
				<duration>4</duration>
				<voice>1</voice>
				<type>eighth</type>
				<time-modification>
					<actual-notes>3</actual-notes>
					<normal-notes>2</normal-notes>
				</time-modification>
				<stem>down</stem>
				<beam number="1">begin</beam>
			</note>
			<note>
				<pitch>
					<step>B</step>
					<alter>-1</alter>
					<octave>4</octave>
				</pitch>
				<duration>4</duration>
				<voice>1</voice>
				<type>eighth</type>
				<time-modification>
					<actual-notes>3</actual-notes>
					<normal-notes>2</normal-notes>
				</time-modification>
				<stem>down</stem>
				<beam number="1">continue</beam>
			</note>
			<note>
				<pitch>
					<step>B</step>
					<alter>-1</alter>
					<octave>4</octave>
				</pitch>
				<duration>2</duration>
				<voice>1</voice>
				<type>16th</type>
				<time-modification>
					<actual-notes>3</actual-notes>
					<normal-notes>2</normal-notes>
				</time-modification>
				<stem>down</stem>
				<beam number="1">continue</beam>
				<beam number="2">begin</beam>
			</note>
			<note>
				<pitch>
					<step>F</step>
					<octave>4</octave>
				</pitch>
				<duration>2</duration>
				<voice>1</voice>
				<type>16th</type>
				<time-modification>
					<actual-notes>3</actual-notes>
					<normal-notes>2</normal-notes>
				</time-modification>
				<stem>down</stem>
				<beam number="1">end</beam>
				<beam number="2">end</beam>
			</note>
			<note>
				<pitch>
					<step>B</step>
					<alter>-1</alter>
					<octave>4</octave>
				</pitch>
				<duration>6</duration>
				<voice>1</voice>
				<type>eighth</type>
				<stem>up</stem>
				<beam number="1">begin</beam>
			</note>
			<note>
				<pitch>
					<step>F</step>
					<octave>4</octave>
				</pitch>
				<duration>6</duration>
				<voice>1</voice>
				<type>eighth</type>
				<stem>up</stem>
				<beam number="1">end</beam>
			</note>
			<note>
				<pitch>
					<step>D</step>
					<octave>4</octave>
				</pitch>
				<duration>6</duration>
				<voice>1</voice>
				<type>eighth</type>
				<stem>up</stem>
				<beam number="1">begin</beam>
			</note>
			<note>
				<pitch>
					<step>D</step>
					<octave>4</octave>
				</pitch>
				<duration>3</duration>
				<voice>1</voice>
				<type>16th</type>
				<stem>up</stem>
				<beam number="1">continue</beam>
				<beam number="2">begin</beam>
			</note>
			<note>
				<pitch>
					<step>C</step>
					<octave>4</octave>
				</pitch>
				<duration>3</duration>
				<voice>1</voice>
				<type>16th</type>
				<stem>up</stem>
				<beam number="1">end</beam>
				<beam number="2">end</beam>
			</note>
			<barline>
				<bar-style>light-light</bar-style>
			</barline>
		</measure>
		<measure number="6">
			<attributes>
				<time>
					<beats>2</beats>
					<beat-type>4</beat-type>
				</time>
			</attributes>
			<note>
				<pitch>
					<step>D</step>
					<octave>4</octave>
				</pitch>
				<duration>6</duration>
				<voice>1</voice>
				<type>eighth</type>
				<stem>up</stem>
				<beam number="1">begin</beam>
			</note>
			<note>
				<pitch>
					<step>C</step>
					<octave>4</octave>
				</pitch>
				<duration>6</duration>
				<voice>1</voice>
				<type>eighth</type>
				<stem>up</stem>
				<beam number="1">end</beam>
			</note>
			<note>
				<pitch>
					<step>B</step>
					<alter>-1</alter>
					<octave>3</octave>
				</pitch>
				<duration>6</duration>
				<voice>1</voice>
				<type>eighth</type>
				<stem>up</stem>
				<beam number="1">begin</beam>
			</note>
			<note>
				<pitch>
					<step>B</step>
					<alter>-1</alter>
					<octave>3</octave>
				</pitch>
				<duration>6</duration>
				<voice>1</voice>
				<type>eighth</type>
				<stem>up</stem>
				<beam number="1">end</beam>
			</note>
		</measure>
		<measure number="7">
			<note>
				<pitch>
					<step>B</step>
					<alter>-1</alter>
					<octave>3</octave>
				</pitch>
				<duration>6</duration>
				<voice>1</voice>
				<type>eighth</type>
				<stem>up</stem>
				<beam number="1">begin</beam>
			</note>
			<note>
				<pitch>
					<step>B</step>
					<alter>-1</alter>
					<octave>3</octave>
				</pitch>
				<duration>6</duration>
				<voice>1</voice>
				<type>eighth</type>
				<stem>up</stem>
				<beam number="1">end</beam>
			</note>
			<note>
				<pitch>
					<step>B</step>
					<alter>-1</alter>
					<octave>3</octave>
				</pitch>
				<duration>6</duration>
				<voice>1</voice>
				<type>eighth</type>
				<stem>up</stem>
				<beam number="1">begin</beam>
			</note>
			<note>
				<pitch>
					<step>B</step>
					<alter>-1</alter>
					<octave>3</octave>
				</pitch>
				<duration>6</duration>
				<voice>1</voice>
				<type>eighth</type>
				<stem>up</stem>
				<beam number="1">end</beam>
				<notations>
					<fermata type="upright"/>
				</notations>
			</note>
			<barline>
				<bar-style>light-light</bar-style>
			</barline>
		</measure>
		<measure number="8">
			<attributes>
				<time>
					<beats>3</beats>
					<beat-type>4</beat-type>
				</time>
			</attributes>
			<note>
				<pitch>
					<step>C</step>
					<octave>4</octave>
				</pitch>
				<duration>6</duration>
				<voice>1</voice>
				<type>eighth</type>
				<stem>up</stem>
				<beam number="1">begin</beam>
			</note>
			<note>
				<pitch>
					<step>B</step>
					<alter>-1</alter>
					<octave>3</octave>
				</pitch>
				<duration>6</duration>
				<voice>1</voice>
				<type>eighth</type>
				<stem>up</stem>
				<beam number="1">end</beam>
			</note>
			<note>
				<pitch>
					<step>B</step>
					<alter>-1</alter>
					<octave>3</octave>
				</pitch>
				<duration>6</duration>
				<voice>1</voice>
				<type>eighth</type>
				<stem>up</stem>
				<beam number="1">begin</beam>
			</note>
			<note>
				<pitch>
					<step>B</step>
					<alter>-1</alter>
					<octave>3</octave>
				</pitch>
				<duration>6</duration>
				<voice>1</voice>
				<type>eighth</type>
				<stem>up</stem>
				<beam number="1">end</beam>
			</note>
			<note>
				<pitch>
					<step>B</step>
					<alter>-1</alter>
					<octave>3</octave>
				</pitch>
				<duration>12</duration>
				<voice>1</voice>
				<type>quarter</type>
				<stem>up</stem>
			</note>
			<barline>
				<bar-style>light-light</bar-style>
			</barline>
		</measure>
		<measure number="9">
			<attributes>
				<time>
					<beats>2</beats>
					<beat-type>4</beat-type>
				</time>
			</attributes>
			<note>
				<pitch>
					<step>D</step>
					<octave>4</octave>
				</pitch>
				<duration>6</duration>
				<voice>1</voice>
				<type>eighth</type>
				<stem>up</stem>
				<beam number="1">begin</beam>
			</note>
			<note>
				<pitch>
					<step>C</step>
					<octave>4</octave>
				</pitch>
				<duration>6</duration>
				<voice>1</voice>
				<type>eighth</type>
				<stem>up</stem>
				<beam number="1">end</beam>
			</note>
			<note>
				<pitch>
					<step>C</step>
					<octave>4</octave>
				</pitch>
				<duration>12</duration>
				<voice>1</voice>
				<type>quarter</type>
				<stem>up</stem>
			</note>
		</measure>
		<measure number="10">
			<note>
				<pitch>
					<step>C</step>
					<octave>4</octave>
				</pitch>
				<duration>6</duration>
				<voice>1</voice>
				<type>eighth</type>
				<stem>up</stem>
				<beam number="1">begin</beam>
			</note>
			<note>
				<pitch>
					<step>B</step>
					<alter>-1</alter>
					<octave>3</octave>
				</pitch>
				<duration>6</duration>
				<voice>1</voice>
				<type>eighth</type>
				<stem>up</stem>
				<beam number="1">end</beam>
			</note>
			<note>
				<pitch>
					<step>B</step>
					<alter>-1</alter>
					<octave>3</octave>
				</pitch>
				<duration>6</duration>
				<voice>1</voice>
				<type>eighth</type>
				<stem>up</stem>
				<beam number="1">begin</beam>
			</note>
			<note>
				<pitch>
					<step>B</step>
					<alter>-1</alter>
					<octave>3</octave>
				</pitch>
				<duration>6</duration>
				<voice>1</voice>
				<type>eighth</type>
				<stem>up</stem>
				<beam number="1">end</beam>
			</note>
		</measure>
		<measure number="11">
			<note>
				<pitch>
					<step>B</step>
					<alter>-1</alter>
					<octave>3</octave>
				</pitch>
				<duration>6</duration>
				<voice>1</voice>
				<type>eighth</type>
				<stem>up</stem>
				<beam number="1">begin</beam>
			</note>
			<note>
				<pitch>
					<step>B</step>
					<alter>-1</alter>
					<octave>3</octave>
				</pitch>
				<duration>6</duration>
				<voice>1</voice>
				<type>eighth</type>
				<stem>up</stem>
				<beam number="1">end</beam>
			</note>
			<note>
				<pitch>
					<step>B</step>
					<alter>-1</alter>
					<octave>3</octave>
				</pitch>
				<duration>12</duration>
				<voice>1</voice>
				<type>quarter</type>
				<stem>up</stem>
			</note>
		</measure>
		<measure number="12">
			<note>
				<pitch>
					<step>C</step>
					<octave>4</octave>
				</pitch>
				<duration>6</duration>
				<voice>1</voice>
				<type>eighth</type>
				<stem>up</stem>
				<beam number="1">begin</beam>
			</note>
			<note>
				<pitch>
					<step>B</step>
					<alter>-1</alter>
					<octave>3</octave>
				</pitch>
				<duration>6</duration>
				<voice>1</voice>
				<type>eighth</type>
				<stem>up</stem>
				<beam number="1">end</beam>
			</note>
			<note>
				<pitch>
					<step>B</step>
					<alter>-1</alter>
					<octave>3</octave>
				</pitch>
				<duration>6</duration>
				<voice>1</voice>
				<type>eighth</type>
				<stem>up</stem>
				<beam number="1">begin</beam>
			</note>
			<note>
				<pitch>
					<step>B</step>
					<alter>-1</alter>
					<octave>3</octave>
				</pitch>
				<duration>6</duration>
				<voice>1</voice>
				<type>eighth</type>
				<stem>up</stem>
				<beam number="1">end</beam>
			</note>
		</measure>
		<measure number="13">
			<note>
				<pitch>
					<step>B</step>
					<alter>-1</alter>
					<octave>3</octave>
				</pitch>
				<duration>6</duration>
				<voice>1</voice>
				<type>eighth</type>
				<stem>up</stem>
				<beam number="1">begin</beam>
			</note>
			<note>
				<pitch>
					<step>B</step>
					<alter>-1</alter>
					<octave>3</octave>
				</pitch>
				<duration>6</duration>
				<voice>1</voice>
				<type>eighth</type>
				<stem>up</stem>
				<beam number="1">end</beam>
			</note>
			<note>
				<pitch>
					<step>B</step>
					<alter>-1</alter>
					<octave>3</octave>
				</pitch>
				<duration>12</duration>
				<voice>1</voice>
				<type>quarter</type>
				<stem>up</stem>
			</note>
		</measure>
		<measure number="14">
			<note>
				<pitch>
					<step>B</step>
					<alter>-1</alter>
					<octave>3</octave>
				</pitch>
				<duration>24</duration>
				<voice>1</voice>
				<type>half</type>
				<stem>up</stem>
			</note>
		</measure>
	</part>
</score-partwise>
